<?xml version="1.0" encoding="UTF-8"?>
<svg width="60px" height="60px" viewBox="0 0 60 60" version="1.1" xmlns="http://www.w3.org/2000/svg" xmlns:xlink="http://www.w3.org/1999/xlink">
    <g id="ic-muffin-canon" stroke="none" stroke-width="1" fill="none" fill-rule="evenodd">
        <path d="M48.117,30.2334253 C47.9525,30.1853793 47.7825,30.1605977 47.6125,30.1605977 C47.5915,30.1605977 47.571,30.1651494 47.55,30.1656552 L48.2365,27.7674023 C48.3575,27.3456092 48.309,26.9015632 48.0995,26.5166897 C47.89,26.1323218 47.5455,25.8531494 47.129,25.7312644 L47.0085,25.6958621 C46.861,25.6528736 46.7085,25.6306207 46.556,25.6306207 C45.966,25.6306207 45.432,25.9628966 45.1475,26.4671264 L11.434,16.5954483 L9.0265,15.1788506 L6.005,25.7342989 L8.6765,25.7914483 L20.2315,29.1754023 C16.523,31.3814713 14.0275,35.4577931 14.0275,40.1152184 C14.0275,44.0812874 15.837,47.626069 18.663,49.954023 L10.9165,49.954023 L10.9165,51.2183908 L20.5115,51.2183908 C21.9565,52.028092 23.574,52.5591264 25.294,52.7356322 L7.75,52.7356322 L7.75,54 L48.4375,54 L48.4375,52.7356322 L27.844,52.7356322 C29.564,52.5591264 31.182,52.028092 32.6265,51.2183908 L43.583,51.2183908 L43.583,49.954023 L34.475,49.954023 C37.301,47.6255632 39.1105,44.0812874 39.1105,40.1152184 C39.1105,38.0173793 38.601,36.0378851 37.706,34.2930575 L42.469,35.687908 C42.299,36.5193563 42.7815,37.3588966 43.601,37.5981149 L43.7205,37.6330115 C43.868,37.6765057 44.0205,37.6982529 44.173,37.6982529 C44.892,37.6982529 45.534,37.2102069 45.7335,36.5112644 L46.595,33.5010575 C46.75,33.6087816 46.918,33.6998161 47.108,33.7554483 C47.2725,33.8034943 47.442,33.8277701 47.6125,33.8277701 C48.4145,33.8277701 49.13,33.2835862 49.3525,32.5042299 C49.4875,32.0338851 49.433,31.5382529 49.1995,31.1093793 C48.967,30.6810115 48.582,30.3694713 48.117,30.2334253 Z M11.613,17.964 L20.198,20.478069 L18.2515,27.2793563 L9.6665,24.7652874 L11.613,17.964 Z M9.782,17.086023 L10.45,17.4789885 L8.4305,24.5341609 L7.6585,24.5048276 L9.782,17.086023 Z M19.452,27.6303448 L21.3985,20.8290575 L36.888,25.3651034 L35.2755,30.9965977 C33.018,28.7905287 29.949,27.4290575 26.5695,27.4290575 C24.918,27.4290575 23.342,27.7567816 21.8965,28.345977 L19.452,27.6303448 Z M26.5695,51.5365057 C20.3435,51.5365057 15.278,46.4127816 15.278,40.1152184 C15.278,33.8176552 20.3435,28.693931 26.5695,28.693931 C32.7955,28.693931 37.861,33.8176552 37.861,40.1152184 C37.861,46.4127816 32.7955,51.5365057 26.5695,51.5365057 Z M42.8055,34.4695632 L36.729,32.6903448 C36.58,32.4824828 36.427,32.2781609 36.2665,32.079908 L38.088,25.7165977 L44.752,27.6677701 L42.8055,34.4695632 Z M44.533,36.1607816 C44.4775,36.356 44.267,36.4758621 44.0685,36.4197241 L43.949,36.3848276 C43.7505,36.3266667 43.6355,36.1157701 43.693,35.9144828 L46.196,27.1701149 C46.242,27.0087816 46.39,26.896 46.5555,26.896 C46.5905,26.896 46.6265,26.9010575 46.66,26.9111724 L46.7805,26.9465747 C46.8765,26.9748966 46.9565,27.0391264 47.0045,27.1276322 C47.0525,27.2161379 47.064,27.3182989 47.036,27.415908 L44.533,36.1607816 Z M48.153,32.1527356 C48.07,32.4465747 47.7505,32.6281379 47.4565,32.5411494 C47.1585,32.4536552 46.987,32.138069 47.072,31.8371494 L47.0725,31.8361379 C47.1425,31.5938851 47.364,31.4249655 47.6125,31.4249655 C47.6645,31.4249655 47.7175,31.4325517 47.769,31.4477241 C47.913,31.4897011 48.0325,31.5862989 48.105,31.7198161 C48.178,31.8528276 48.195,32.0065747 48.153,32.1527356 Z" id="Shape" fill="#FFFFFF" fill-rule="nonzero"></path>
        <path d="M26.5695,30.1838621 C21.1555,30.1838621 16.751,34.6389885 16.751,40.1152184 C16.751,45.5914483 21.1555,50.0465747 26.5695,50.0465747 C31.9835,50.0465747 36.388,45.5914483 36.388,40.1152184 C36.388,34.6389885 31.9835,30.1838621 26.5695,30.1838621 Z M26.5695,42.7521839 C25.132,42.7521839 23.9625,41.5692414 23.9625,40.1152184 C23.9625,38.6611954 25.132,37.4782529 26.5695,37.4782529 C28.007,37.4782529 29.1765,38.6611954 29.1765,40.1152184 C29.1765,41.5692414 28.007,42.7521839 26.5695,42.7521839 Z M28.815,36.9497471 C28.343,36.6058391 27.792,36.3691494 27.194,36.2695172 L27.194,31.480092 C29.086,31.6191724 30.808,32.3788046 32.162,33.5637701 L28.815,36.9497471 Z M25.9445,36.2695172 C25.347,36.3686437 24.796,36.6058391 24.324,36.9492414 L20.9765,33.5637701 C22.3305,32.3793103 24.052,31.6196782 25.9445,31.4805977 L25.9445,36.2695172 Z M23.44,37.8434023 C23.1,38.3208276 22.866,38.8786667 22.768,39.4830345 L18.033,39.4830345 C18.1705,37.5687816 18.9215,35.8274943 20.093,34.4574253 L23.44,37.8434023 Z M22.768,40.7474023 C22.866,41.3517701 23.1005,41.9091034 23.44,42.3865287 L20.093,45.7725057 C18.9215,44.4024368 18.1705,42.6616552 18.033,40.7468966 L22.768,40.7468966 L22.768,40.7474023 Z M24.3235,43.2806897 C24.7955,43.6245977 25.3465,43.8612874 25.944,43.9609195 L25.944,48.7503448 C24.0515,48.6112644 22.3305,47.8516322 20.976,46.6671724 L24.3235,43.2806897 Z M27.1945,43.9604138 C27.792,43.8612874 28.343,43.624092 28.8155,43.2801839 L32.163,46.6656552 C30.8085,47.8506207 29.0875,48.6102529 27.1945,48.7493333 L27.1945,43.9604138 Z M29.699,42.3865287 C30.0385,41.9091034 30.2725,41.3517701 30.371,40.7474023 L35.106,40.7474023 C34.9685,42.6611494 34.2175,44.4024368 33.0465,45.7725057 L29.699,42.3865287 Z M30.371,39.4830345 C30.273,38.8786667 30.0385,38.3213333 29.699,37.843908 L33.0455,34.4584368 C34.217,35.828 34.968,37.5692874 35.1055,39.4835402 L30.371,39.4835402 L30.371,39.4830345 Z" id="Shape" fill="#FFFFFF" fill-rule="nonzero"></path>
        <path d="M26.5695,37.9870345 C25.4095,37.9870345 24.4655,38.9418851 24.4655,40.1152184 C24.4655,41.2885517 25.4095,42.2434023 26.5695,42.2434023 C27.7295,42.2434023 28.6735,41.2885517 28.6735,40.1152184 C28.6735,38.9418851 27.7295,37.9870345 26.5695,37.9870345 Z M26.5695,40.9790345 C26.0985,40.9790345 25.7155,40.5911264 25.7155,40.1152184 C25.7155,39.6393103 26.0985,39.2514023 26.5695,39.2514023 C27.0405,39.2514023 27.4235,39.6393103 27.4235,40.1152184 C27.4235,40.5911264 27.0405,40.9790345 26.5695,40.9790345 Z" id="Shape" fill="#FFFFFF" fill-rule="nonzero"></path>
        <path d="M36.222023,16.3333482 C35.5657811,14.6305026 36.4135333,12.7179533 38.1160597,12.061073 C38.5753651,8.96690523 41.0046731,6.53727813 44.0985216,6.07797264 C47.9801159,5.50184588 51.5919998,8.18043634 52.1687649,12.061073 C52.9772575,12.3732348 53.6306267,12.990217 53.9884317,13.7795586 C54.7420247,15.4418678 54.0059868,17.3997413 52.3427201,18.153015 L51.3864454,22.8245892 C47.3337687,24.1747366 42.9516942,24.1747366 38.89806,22.8245892 L37.9414661,18.153015 C37.1518054,17.7958484 36.5345039,17.1418408 36.222023,16.3333482 Z M45.1422527,16.7980798 C46.0554375,17.8015937 47.6101818,17.8740484 48.6127382,16.959906 C48.746157,16.8386161 48.8652125,16.7036014 48.9686281,16.5561385 C49.7490325,17.6668981 51.2807955,17.9343741 52.391236,17.1539697 C53.5016764,16.3735653 53.7688333,14.8408447 52.9884289,13.7307235 C52.6105153,13.1928988 52.0340693,12.8296676 51.3861262,12.7205067 C51.1741882,9.27172576 48.2067364,6.6483541 44.7582746,6.86029214 C41.6050578,7.05339834 39.0911662,9.56728996 38.8977408,12.7205067 C37.5594031,12.9455313 36.658028,14.212691 36.8827334,15.5503903 C37.1068005,16.8890472 38.3749177,17.7913798 39.712617,17.5657168 C40.3611985,17.4575135 40.9379636,17.0933248 41.3158773,16.5558193 C42.0959625,17.6665789 43.6280447,17.934055 44.7384852,17.1536506 C44.8856289,17.0505542 45.0200053,16.9311794 45.1422527,16.7980798 Z M48.6251863,22.666274 C49.3107931,22.5379621 49.9881012,22.3713482 50.6555145,22.1680281 L51.4234707,18.4179376 C50.5514606,18.5363548 49.6673214,18.3020739 48.9686281,17.7664835 C47.8521232,18.6222152 46.3158915,18.6771148 45.1422527,17.9043709 C43.9666987,18.6771148 42.432063,18.6222152 41.3158773,17.7664835 C40.6165456,18.3020739 39.7324064,18.5363548 38.8610346,18.4179376 L39.6289909,22.1680281 C40.2954466,22.3713482 40.9737122,22.5376429 41.6586807,22.666274 L41.2162919,19.0748179 C41.1888421,18.8520276 41.3471573,18.649665 41.5699476,18.6222152 C41.7920995,18.5947654 41.9951004,18.7524422 42.0225502,18.9752325 L42.4943039,22.8032038 C43.2364062,22.9078961 43.9858498,22.9691794 44.7359317,22.9854578 L44.7359317,18.9924684 C44.7359317,18.767763 44.9169089,18.5861475 45.1419335,18.5861475 C45.3656813,18.5861475 45.5469777,18.767763 45.5469777,18.9924684 L45.5469777,22.985777 C46.2983364,22.9691794 47.0468224,22.9082153 47.7892439,22.803523 L48.2613168,18.9755517 C48.2887666,18.7527614 48.4908099,18.5950846 48.7139194,18.6225344 C48.9363905,18.6499842 49.0940673,18.8523467 49.0666175,19.075137 L48.6251863,22.666274 Z" id="Shape" fill="#FFFFFF" fill-rule="nonzero"></path>
    </g>
</svg>