
<?xml version="1.0" encoding="UTF-8"?>
<svg width="60px" height="60px" viewBox="0 0 60 60" version="1.1" xmlns="http://www.w3.org/2000/svg" xmlns:xlink="http://www.w3.org/1999/xlink">
    <g id="ic-blind" stroke="none" stroke-width="1" fill="none" fill-rule="evenodd">
        <path d="M51.303327,14.6502817 C51.6894655,14.6502817 51.9994926,14.3486406 51.9994926,13.9795336 C51.9994926,13.6070044 51.6899729,13.3087855 51.303327,13.3087855 L48.7865767,13.3087855 L48.7865767,9.34149621 L51.303327,9.34149621 C51.6894655,9.34149621 51.9994926,9.03985511 51.9994926,8.6707481 C51.9994926,8.30164109 51.6899729,8 51.303327,8 L8.6961656,8 C8.30951969,8 8,8.30164109 8,8.6707481 C8,9.03985511 8.3100271,9.34149621 8.6961656,9.34149621 L47.3947529,9.34149621 L47.3947529,13.3087855 L8.6961656,13.3087855 C8.3100271,13.3087855 8,13.6070044 8,13.9795336 C8,14.3481517 8.3100271,14.6502817 8.6961656,14.6502817 L47.3947529,14.6502817 L47.3947529,18.6175709 L8.6961656,18.6175709 C8.3100271,18.6175709 8,18.9162787 8,19.288319 C8,19.657426 8.3100271,19.9590671 8.6961656,19.9590671 L47.3947529,19.9590671 L47.3947529,23.9263564 L8.6961656,23.9263564 C8.3100271,23.9263564 8,24.2245753 8,24.5971045 C8,24.9662115 8.3100271,25.2678526 8.6961656,25.2678526 L47.3947529,25.2678526 L47.3947529,29.2351418 L8.6961656,29.2351418 C8.3100271,29.2351418 8,29.5333607 8,29.9058899 C8,30.2745081 8.3100271,30.576638 8.6961656,30.576638 L47.3947529,30.576638 L47.3947529,34.5439273 L8.6961656,34.5439273 C8.3100271,34.5439273 8,34.8426351 8,35.2146754 C8,35.5837824 8.3100271,35.8854235 8.6961656,35.8854235 L47.3947529,35.8854235 L47.3947529,45.5203387 C46.1972669,45.8190465 45.3133599,46.8686792 45.3133599,48.1128876 L45.3133599,51.3292519 C45.3133599,51.6983589 45.6228795,52 46.0095255,52 L50.1723116,52 C50.5554056,52 50.8684772,51.6983589 50.8684772,51.3292519 L50.8684772,48.1128876 C50.8684772,46.8686792 49.9845701,45.8190465 48.7870841,45.5203387 L48.7870841,35.8854235 L51.3038344,35.8854235 C51.6899729,35.8854235 52,35.5837824 52,35.2146754 C52,34.8426351 51.6904803,34.5439273 51.3038344,34.5439273 L48.7870841,34.5439273 L48.7870841,30.576638 L51.3038344,30.576638 C51.6899729,30.576638 52,30.2749969 52,29.9058899 C52,29.5333607 51.6904803,29.2351418 51.3038344,29.2351418 L48.7870841,29.2351418 L48.7870841,25.2678526 L51.3038344,25.2678526 C51.6899729,25.2678526 52,24.9662115 52,24.5971045 C52,24.2245753 51.6904803,23.9263564 51.3038344,23.9263564 L48.7870841,23.9263564 L48.7870841,19.9590671 L51.3038344,19.9590671 C51.6899729,19.9590671 52,19.657426 52,19.288319 C52,18.9162787 51.6904803,18.6175709 51.3038344,18.6175709 L48.7870841,18.6175709 L48.7870841,14.6502817 L51.303327,14.6502817 Z M49.476146,48.1123988 L49.476146,50.6580149 L46.7056911,50.6580149 L46.7056911,48.1123988 C46.7056911,47.3780958 47.3252378,46.7777469 48.0909185,46.7777469 C48.8530473,46.7777469 49.476146,47.3780958 49.476146,48.1123988 Z" id="Shape" fill="#FFFFFF" fill-rule="nonzero"></path>
    </g>
</svg>